<?xml version="1.0" encoding="UTF-8"?>
<svg version="1.1" viewBox="0 0 1e3 1e3" xmlns="http://www.w3.org/2000/svg">
<defs>
<filter id="a" x="-.02599" y="-.028091" width="1.052" height="1.0562" color-interpolation-filters="sRGB">
<feGaussianBlur stdDeviation="9.7463707"/>
</filter>
</defs>
<path d="m444.65 83.675c-8.938-0.32471-16.288 6.0567-19.569 13.998-37.638 67.889-73.117 136.95-109.73 205.4-25.056 47.912-50.995 95.382-75.014 143.82-4.4397 8.0433-7.2111 19.841 1.3138 26.352 6.9868 7.6984 18.41 6.4018 26.834 1.9905 52.518-23.9 103.79-50.448 155.84-75.345 0.85267 38.894 0.12264 77.857 2.2759 116.7 1.3808 16.676 27.191 21.956 35.393 7.4966 20.732-35.035 38.503-71.747 57.867-107.55 2.8755-5.4067 5.7271-10.823 8.618-16.222 22.447 61.18 43.51 123.03 66.915 183.92 3.1704 8.7398 8.7559 19.62 19.716 18.895 8.9721 0.24626 17.348-5.1874 20.369-13.712 68.811-128.38 136.71-257.24 204.71-386.04 4.6222-10.676 13.46-21.749 10.319-34.003-3.4734-9.1395-13.8-16.66-23.716-12.612-24.322 9.3069-47.126 22.181-70.733 33.13-33.334 16.25-66.641 32.563-99.945 48.884 1.131-33.552 4.469-67.078 3.9084-100.66-0.24625-17.449-27.05-23.989-35.735-9.1044-27.045 47.608-51.533 96.633-77.119 145.04-3.8012 7.2926-7.6035 14.585-11.405 21.877-24.2-65.355-46.541-131.4-71.459-196.51-2.8845-9.1638-9.4149-16.225-19.659-15.743zm-20.66 103.52c0 2.1677 0 4.3336 0.0311 6.5014 0.0623 30.895 0.16546 61.796-0.20617 92.691-14.339-5.2088-28.628-10.554-42.853-16.064 13.961-27.962 28.43-55.537 43.025-83.127zm357.77 36.895c-28.693 54.277-56.797 108.88-86.477 162.63-15.446-5.7093-30.842-11.406-46.231-17.19 1.2164-27.231 2.678-55.01 4.4161-82.511 42.636-21.145 85.665-42.239 128.3-62.927zm-315.56 2.4725 8.4827 23.694c7.5398 21.145 15.111 42.288 22.498 63.483-10.308-3.8353-20.586-7.7459-30.873-11.638 0-25.179 0.0623-50.36-0.10902-75.539zm147.78 9.8928-0.0487 0.68273c-0.45826 7.7472-0.94284 15.493-1.4711 23.236-4.7561 2.245-10.691 5.6367-14.741 7.1753 5.4039-10.373 10.833-20.772 16.254-31.094zm-253.7 71.54c0.7458 0.24938 1.4912 0.49797 2.2368 0.74657 20.513 7.0333 40.913 14.638 61.185 22.153 0.11096 7.43 0.21453 14.863 0.32159 22.293-39.617 19.461-79.224 38.948-118.88 58.337 18.293-34.554 36.628-69.089 55.133-103.53zm249.8 0.26203-0.59201 10.958c-0.6138 11.786-1.1558 23.475-1.9027 35.171-15.421-5.7006-30.844-11.392-46.265-17.084 1.5952-6.3228 6.636-9.1386 12.341-11.273 12.139-5.9251 24.272-11.866 36.419-17.771zm-109.31 53.728c-0.73606 1.4645-1.4723 2.929-2.2086 4.3932-10.389 20.49-21.072 40.83-31.747 61.174-0.33095-16.16-0.53457-32.145-0.49135-48.319 11.482-5.7481 22.964-11.498 34.447-17.248zm66.759 22.163c1.7955 0.64924 3.5896 1.2979 5.3852 1.9475 10.633 3.8837 21.259 7.7993 31.792 11.947-0.91207 26.688-2.3271 53.294-3.7469 79.869-11.159-31.279-22.501-62.421-33.431-93.762zm79.21 29.473c1.1121 0.38662 2.2244 0.77226 3.335 1.1588 8.4764 3.069 17.352 6.0444 25.493 9.4446-10.745 21.537-22.054 42.787-33.224 64.104 1.4303-24.921 2.7943-49.794 4.3957-74.708zm285.26 33.8c-1.429-0.0447-2.8658 0.10901-4.2995 0.3944-48.296 31.95-91.44 71.578-137.11 107.27-46.184 38.122-92.961 74.132-150.55 93.312-90.855 35.227-190.59 34.484-282.42 9.8388-73.242-18.141-138.08-58.729-206.32-89.498-28.091-12.457-55.147-28.261-84.484-37.431-16.727-0.63794-21.292 20.227-12.271 31.582 46.353 70.183 101.73 134.39 160.94 194.06 75.821 74.859 167.21 145.75 276.57 157.85 89.254 10.446 175.66-33.3 238.41-94.032 97.101-93.51 161.17-215.14 214.79-337.31 7.1546-11.942 7.7263-31.489-9.0324-35.271-1.3919-0.47966-2.8099-0.71542-4.2375-0.75824zm-62.199 102.76c-1.6837 3.3342-3.3706 6.6683-5.0547 10.003-49.596 94.302-105.06 189.19-189.83 256.19-10.317 11.025-24.061-5.531-35.754-7.9394-19.73-9.2916-39.758-18.936-58.983-29.088 76.188-63.182 152.17-126.83 233.22-183.75 19.31-14.489 38.206-29.543 56.403-45.413zm-727.55 64.496 2.4186 1.1953 1.8625 0.92529c76.21 38.69 156 69.673 232.07 108.5 42.244 20.561 84.536 41.048 126.21 62.754-27.503 22.998-55.464 48.087-84.924 67.184-114.56-50.337-200.37-145.4-277.63-240.56zm472.12 84.455c-2.2138 1.8178-4.4286 3.6338-6.6425 5.4518-22.535 18.246-44.96 36.698-68.591 53.526-30.157-13.203-59.598-27.983-89.097-42.58 55.167 3.8201 111-1.7682 164.33-16.398zm-68.712 109.62c26.797 11.848 56.789 25.42 80.002 39.409-39.557 21.731-85.092 29.673-129.86 26.103-8.6376-0.52717-18.113-1.8136-26.978-3.8224 24.878-21.282 50.429-42.977 76.841-61.69z" fill="#fff" filter="url(#a)" opacity=".44" stroke-width=".9"/>
</svg>
